<svg xmlns="http://www.w3.org/2000/svg" viewBox="0 0 671.28 620.57"><defs><style>.oic2020_logo_cls-1{fill:#fff;}.oic2020_logo_cls-2{fill:#0e0f0d;}</style></defs><g id="レイヤー_2" data-name="レイヤー 2"><g id="レイヤー_1-2" data-name="レイヤー 1"><path class="oic2020_logo_cls-1" d="M112.63,45.67c0,20-7,39.33-19.5,51.69-10.24,9.91-24,15.76-40.47,15.76C24.22,113.12,8.29,93,8.29,67.45,8.29,47.62,15.6,28,28.44,15.6A57.41,57.41,0,0,1,68.43,0C97.36,0,112.63,19.5,112.63,45.67ZM46.81,27.79C38,36.41,33.16,53.47,33.16,66.64c0,15.44,7,27,22.91,27,6.83,0,13.33-3.09,18.37-8C83.05,77,87.77,59,87.77,46.32c0-13.65-4.88-26.82-22.11-26.82A26,26,0,0,0,46.81,27.79Z"/><path class="oic2020_logo_cls-1" d="M118.16,111.33,139,1.79h27.46L180.9,43.56c4.39,14,7.31,25.35,9.91,37.38h.49c.49-11.21,1.95-23.24,5-39.33l7.48-39.82h21.77L205,111.33H180.74L165.46,67.61a343.7,343.7,0,0,1-10.73-38.19l-.49.16c-1.3,10.57-3.9,26.17-7.15,43.4l-7.15,38.35Z"/><path class="oic2020_logo_cls-1" d="M247.21,1.79h23.41L253.71,90.85h42.1l-3.9,20.48h-65.5Z"/><path class="oic2020_logo_cls-1" d="M349.28,1.79l-20.8,109.54h-23.4L325.88,1.79Z"/><path class="oic2020_logo_cls-1" d="M350.1,111.33,370.9,1.79h27.47l14.46,41.77c4.39,14,7.32,25.35,9.92,37.38h.48c.49-11.21,1.95-23.24,5-39.33l7.48-39.82h21.78L436.89,111.33H412.67L397.39,67.61a345.88,345.88,0,0,1-10.73-38.19l-.48.16c-1.3,10.57-3.9,26.17-7.15,43.4l-7.16,38.35Z"/><path class="oic2020_logo_cls-1" d="M529.53,64.85h-39l-5,26.49h43.73l-3.74,20H458.34L479.15,1.79H544l-3.9,20H498.81l-4.55,23.4h39Z"/><path class="oic2020_logo_cls-1" d="M47.3,168.62,26.49,278.17H3.09l20.8-109.55Z"/><path class="oic2020_logo_cls-1" d="M48.11,278.17l20.8-109.55H96.38l14.47,41.77c4.38,14,7.31,25.36,9.91,37.38h.49c.48-11.21,2-23.24,5-39.33l7.47-39.82h21.78L134.9,278.17H110.68L95.4,234.45a343.7,343.7,0,0,1-10.72-38.2l-.49.16c-1.3,10.57-3.9,26.17-7.15,43.4l-7.15,38.36Z"/><path class="oic2020_logo_cls-1" d="M193.09,189.1H164.16l4.06-20.48h81.43l-3.9,20.48H216.49l-16.74,89.07h-23.4Z"/><path class="oic2020_logo_cls-1" d="M313.2,231.68h-39l-5,26.49h43.72l-3.73,20H242l20.8-109.55h64.85l-3.9,20H282.48L277.93,212h39Z"/><path class="oic2020_logo_cls-1" d="M346.68,170.73c7.32-1.78,18.37-2.92,29.26-2.92,10.4,0,21.13,1.62,28.77,6.34A23.75,23.75,0,0,1,416.9,195.6c0,16.25-10.89,26.33-24.87,30.88v.65c6.5,2.76,9.26,10.08,10.4,20,1.3,12.19,2.28,26.49,4.23,31.05H382.6c-1-2.93-2.11-12.36-3.25-25.85-1-13.32-5.52-17.39-14.79-17.39h-7.15l-8.13,43.24H326Zm14.14,46.65h9.75c12.68,0,21.95-7.64,21.95-18.37,0-8.77-7.48-12.67-16.74-12.67a38.22,38.22,0,0,0-9.11.81Z"/><path class="oic2020_logo_cls-1" d="M420.8,278.17l20.8-109.55h27.47l14.47,41.77c4.38,14,7.31,25.36,9.91,37.38h.49c.49-11.21,1.95-23.24,5-39.33l7.47-39.82h21.78L507.59,278.17H483.37l-15.28-43.72a343.7,343.7,0,0,1-10.72-38.2l-.49.16c-1.3,10.57-3.9,26.17-7.15,43.4l-7.15,38.36Z"/><path class="oic2020_logo_cls-1" d="M85.82,441.91c-5.85,2.6-15.77,4.71-28.93,4.71-28.93,0-48.44-17.55-48.44-46.48,0-24.54,11.05-43.72,27.63-54.77,11.38-8,24.87-11.7,40.31-11.7,11.86,0,20.8,2.76,23.89,4.71l-6.34,19c-3.25-1.62-10.4-3.57-19.83-3.57s-18.36,2.92-25,8.45c-9.26,7.48-15.11,20-15.11,35.27,0,17.39,9.75,29.09,29.09,29.09,7.64,0,15.28-1.3,20.81-3.57Z"/><path class="oic2020_logo_cls-1" d="M203.49,379.34c0,20-7,39.33-19.5,51.68-10.24,9.92-24.06,15.77-40.47,15.77-28.44,0-44.37-20.16-44.37-45.67,0-19.83,7.31-39.5,20.15-51.85a57.4,57.4,0,0,1,40-15.6C188.21,333.67,203.49,353.17,203.49,379.34Zm-65.82-17.88C128.89,370.07,124,387.14,124,400.3c0,15.44,7,27,22.92,27,6.83,0,13.33-3.09,18.37-8,8.61-8.61,13.32-26.66,13.32-39.33,0-13.66-4.87-26.82-22.1-26.82A26,26,0,0,0,137.67,361.46Z"/><path class="oic2020_logo_cls-1" d="M209,445l20.8-109.55h27.47l14.47,41.77c4.38,14,7.31,25.36,9.91,37.39h.49c.49-11.22,1.95-23.25,5-39.34l7.47-39.82h21.78L295.81,445H271.59l-15.27-43.72a341.69,341.69,0,0,1-10.73-38.2l-.49.17c-1.3,10.56-3.9,26.16-7.15,43.39L230.8,445Z"/><path class="oic2020_logo_cls-1" d="M354,355.93H325.07l4.06-20.48h81.43l-3.9,20.48H377.4L360.66,445h-23.4Z"/><path class="oic2020_logo_cls-1" d="M474.11,398.52h-39l-5,26.49h43.73l-3.74,20H402.92l20.81-109.55h64.85l-3.91,20H443.39l-4.55,23.41h39Z"/><path class="oic2020_logo_cls-1" d="M491.67,419.64a51.48,51.48,0,0,0,25.84,7c9.1,0,17.39-4.22,17.39-12.84,0-6.17-4.71-10.24-14.79-15.44-11.7-6.34-22.76-14.79-22.76-29.09,0-22.1,19.35-35.59,43.24-35.59,13.32,0,21.13,2.92,25.84,5.52l-7.31,19.5a43.68,43.68,0,0,0-20.48-4.87c-10.89,0-16.58,5.53-16.58,11.54,0,6.34,6.66,10.24,15.93,15.44,13.32,7,21.78,15.93,21.78,28.93,0,24.38-20.16,36.89-44.54,36.89-15.27,0-26.16-3.9-31.37-7.8Z"/><path class="oic2020_logo_cls-1" d="M606.58,355.93H577.65l4.06-20.48h81.43l-3.9,20.48H630L613.24,445h-23.4Z"/><path class="oic2020_logo_cls-1" d="M0,611.83l2.76-15.11,22.76-17.56C46.65,561.93,60.3,549.58,60.3,536.9c0-7.47-5.2-12.84-14.63-12.84a41.61,41.61,0,0,0-22.27,6.18L18.69,513.5a65.21,65.21,0,0,1,32.67-9.1c21.45,0,33,12.51,33,28.77,0,21.61-17.22,36.57-35.92,50.87L38,591.52v.32H75.9l-3.74,20Z"/><path class="oic2020_logo_cls-1" d="M174.72,540.64c0,33-15.93,73-49.25,73-21.94,0-30.55-16.9-30.55-38,0-33.32,16.9-71.19,49.41-71.19C167.08,504.4,174.72,521.79,174.72,540.64ZM117.84,576.4c0,7.8,1.3,18.69,10.56,18.69,16.09,0,23.24-40.31,23.24-54.28,0-7-1-17.88-9.91-17.88C126,522.93,117.84,561,117.84,576.4Z"/><path class="oic2020_logo_cls-1" d="M175.86,611.83l2.76-15.11,22.76-17.56c21.13-17.23,34.78-29.58,34.78-42.26,0-7.47-5.2-12.84-14.63-12.84a41.61,41.61,0,0,0-22.27,6.18l-4.71-16.74a65.21,65.21,0,0,1,32.67-9.1c21.45,0,33,12.51,33,28.77,0,21.61-17.23,36.57-35.92,50.87l-10.4,7.48v.32h37.87l-3.74,20Z"/><path class="oic2020_logo_cls-1" d="M350.58,540.64c0,33-15.93,73-49.25,73-21.94,0-30.55-16.9-30.55-38,0-33.32,16.9-71.19,49.41-71.19C342.94,504.4,350.58,521.79,350.58,540.64ZM293.69,576.4c0,7.8,1.3,18.69,10.57,18.69,16.09,0,23.24-40.31,23.24-54.28,0-7-1-17.88-9.91-17.88C301.82,522.93,293.69,561,293.69,576.4Z"/><path class="oic2020_logo_cls-1" d="M406.64,553.69l-3.08,16.42h-42.1l3.09-16.42Z"/><path class="oic2020_logo_cls-1" d="M404.05,611.83l2.77-15.11,22.75-17.56c21.13-17.23,34.78-29.58,34.78-42.26,0-7.47-5.2-12.84-14.63-12.84a41.57,41.57,0,0,0-22.26,6.18l-4.72-16.74a65.24,65.24,0,0,1,32.67-9.1c21.46,0,33,12.51,33,28.77,0,21.61-17.23,36.57-35.92,50.87l-10.41,7.48v.32H480l-3.73,20Z"/><path class="oic2020_logo_cls-2" d="M59.6,120.07c-27.14,0-45.37-18.75-45.37-46.67,0-20.59,7.64-40.24,20.46-52.57A58.56,58.56,0,0,1,75.36,5c14.07,0,25.72,4.62,33.69,13.35,7.54,8.26,11.52,19.78,11.52,33.32,0,20.57-7.4,40.16-19.8,52.4C89.92,114.52,75.69,120.07,59.6,120.07ZM75.36,7A56.58,56.58,0,0,0,36.07,22.28C23.65,34.23,16.23,53.34,16.23,73.4c0,26.72,17.43,44.67,43.37,44.67,15.56,0,29.31-5.35,39.77-15.48,12-11.86,19.2-30.92,19.2-51C118.57,24.07,102,7,75.36,7ZM63,100.57c-15.2,0-23.92-10.2-23.92-28C39.09,59.74,43.88,42,53,33A26.82,26.82,0,0,1,72.6,24.46c14.9,0,23.1,9.87,23.1,27.81,0,12.81-4.77,31.2-13.62,40C76.58,97.64,69.81,100.57,63,100.57ZM72.6,26.46a24.91,24.91,0,0,0-18.14,8v0c-8.77,8.6-13.36,25.69-13.36,38.13,0,16.51,8,26,21.92,26,6.28,0,12.55-2.73,17.67-7.68,8.45-8.46,13-26.21,13-38.62C93.7,40.5,90,26.46,72.6,26.46Z"/><path class="oic2020_logo_cls-2" d="M212.72,118.29H187l-15.51-44.4c-4.17-12.64-7.08-22.2-9.82-34.09-1.37,10-3.69,23.76-6.62,39.31l-7.3,39.18H123.89L145.07,6.74h29l14.7,42.44c3.57,11.39,6.28,21.29,8.77,32.2a285.9,285.9,0,0,1,4.74-34l7.63-40.63h23.82Zm-24.34-2h22.68L231.32,8.74H211.58l-7.32,39c-3,15.47-4.52,27.56-5,39.2l-.05,1h-2.25l-.17-.79c-2.82-13-5.77-24.19-9.89-37.29L172.66,8.74H146.73L126.31,116.29h19.74l7-37.55c3.35-17.77,5.89-33.16,7.14-43.33l.07-.63,2.15-.71.23,1.09a346.54,346.54,0,0,0,10.7,38.09Z"/><path class="oic2020_logo_cls-2" d="M299.67,118.29H232.14L253.32,6.74h25.44l-16.9,89.07H304Zm-65.12-2H298l3.52-18.48h-42.1L276.35,8.74H255Z"/><path class="oic2020_logo_cls-2" d="M336.24,118.29H310.8L332,6.74h25.44Zm-23-2h21.37L355,8.74H333.64Z"/><path class="oic2020_logo_cls-2" d="M444.65,118.29H418.9l-15.52-44.4c-4.16-12.64-7.08-22.21-9.81-34.09-1.38,10-3.69,23.77-6.62,39.31l-7.31,39.18H355.82L377,6.74h29l14.69,42.44c3.58,11.39,6.28,21.29,8.77,32.2a285.85,285.85,0,0,1,4.75-34l7.63-40.63h23.81Zm-24.33-2H443L463.26,8.74H443.52l-7.33,39c-3,15.47-4.51,27.55-5,39.2l0,1h-2.25l-.17-.79c-2.82-13-5.78-24.19-9.9-37.29L404.59,8.74H378.66L358.24,116.29H378l7-37.55c3.35-17.77,5.89-33.16,7.14-43.33l.08-.63,2.14-.71.24,1.09a345.57,345.57,0,0,0,10.7,38.09Z"/><path class="oic2020_logo_cls-2" d="M533.23,118.29H464.07L485.25,6.74h66.9l-4.29,22H506.57l-4.16,21.41h39L537.29,71.8h-39l-4.66,24.49h43.72Zm-66.74-2h65.08l3.37-18H491.21l5.42-28.49h39L539,52.14H500l4.94-25.41h41.29l3.51-18H486.91Z"/><path class="oic2020_logo_cls-2" d="M34.26,285.12H8.82L30,173.57H55.44Zm-23-2H32.6L53,175.57H31.66Z"/><path class="oic2020_logo_cls-2" d="M142.67,285.12H116.91L101.4,240.73c-4.17-12.64-7.08-22.21-9.82-34.1C90.2,216.66,87.89,230.4,85,246l-7.31,39.17H53.84L75,173.57h29L118.73,216c3.57,11.38,6.27,21.28,8.77,32.2a283.44,283.44,0,0,1,4.74-34l7.63-40.63h23.81Zm-24.34-2H141l20.26-107.55H141.53l-7.32,39c-3,15.46-4.52,27.54-5,39.19l0,1h-2.25l-.17-.79c-2.82-13-5.78-24.19-9.89-37.3L102.6,175.57H76.68L56.25,283.12H76l7-37.54c3.36-17.78,5.89-33.17,7.14-43.34l.08-.62,2.14-.72.24,1.09a347.16,347.16,0,0,0,10.7,38.09Z"/><path class="oic2020_logo_cls-2" d="M207.52,285.12H182.08l16.74-89.07H169.88l4.45-22.48h83.46l-4.28,22.48H224.26Zm-23-2h21.37l16.74-89.07h29.26l3.52-18.48H176l-3.67,18.48h28.92Z"/><path class="oic2020_logo_cls-2" d="M316.9,285.12H247.74l21.18-111.55h66.89l-4.29,22H290.24L286.08,217h39L321,238.63H282l-4.66,24.5H321Zm-66.74-2h65.08l3.37-18H274.88l5.42-28.5h39L322.67,219h-39l4.94-25.41h41.29l3.51-18H270.58Z"/><path class="oic2020_logo_cls-2" d="M415.11,285.12H388.82l-.23-.69c-1.22-3.64-2.47-16.19-3.3-26.07-1-13.78-5.82-16.47-13.79-16.47h-6.32l-8.13,43.23H331.77l21-109.25.62-.16c7.46-1.82,18.76-3,29.49-3,8.57,0,20.61,1.13,29.3,6.49,5.77,3.41,12.66,10.05,12.66,22.3,0,14.48-8.74,25.81-24.05,31.32,5.3,3,8.36,9.45,9.58,20.09.28,2.65.55,5.38.81,8.1.92,9.46,1.87,19.24,3.34,22.66Zm-24.82-2h21.89c-1.3-4.37-2.12-12.9-3-21.87-.26-2.71-.53-5.44-.81-8.07-1.23-10.76-4.35-16.86-9.8-19.18l-.6-.25v-2l.69-.23c21-6.85,24.17-21.69,24.17-29.93A22.82,22.82,0,0,0,411.13,181c-8.3-5.13-19.95-6.2-28.26-6.2-10.29,0-21.08,1.05-28.39,2.75L334.19,283.12h21.2l8.13-43.23h8c10.39,0,14.82,5.13,15.79,18.31C388.37,271,389.42,279.76,390.29,283.12Zm-12.78-58.79h-11l6.2-32,.62-.16a39.75,39.75,0,0,1,9.34-.84c11,0,17.74,5.24,17.74,13.68C400.45,216.19,390.8,224.33,377.51,224.33Zm-8.54-2h8.54c12.14,0,20.94-7.3,20.94-17.36,0-7.32-5.88-11.68-15.74-11.68a41.5,41.5,0,0,0-8.24.64Z"/><path class="oic2020_logo_cls-2" d="M515.36,285.12H489.6l-15.51-44.39c-4.17-12.64-7.08-22.21-9.82-34.1-1.38,10-3.69,23.77-6.62,39.32l-7.31,39.17H426.53l21.18-111.55h29L491.42,216c3.57,11.38,6.27,21.28,8.77,32.2a283.72,283.72,0,0,1,4.74-34l7.63-40.63h23.81Zm-24.34-2H513.7L534,175.57H514.22l-7.32,39c-3,15.46-4.52,27.55-5,39.19l0,1h-2.25l-.17-.79c-2.82-13-5.78-24.19-9.89-37.3l-14.23-41.07H449.37L428.94,283.12h19.74l7-37.54c3.36-17.78,5.89-33.17,7.14-43.34l.08-.62,2.14-.72.24,1.09A345.92,345.92,0,0,0,476,240.08Z"/><path class="oic2020_logo_cls-2" d="M63.82,453.58c-30,0-49.43-18.64-49.43-47.49,0-23.44,10.23-43.71,28.07-55.6,11.25-7.87,25-11.87,40.87-11.87,12.26,0,21.32,2.91,24.42,4.87l.66.41-7,20.86-1-.52c-3.2-1.6-10.2-3.47-19.38-3.47s-18,2.92-24.39,8.22c-9.38,7.57-14.75,20.14-14.75,34.5,0,17.86,10.24,28.09,28.09,28.09,7.58,0,15-1.27,20.42-3.5l1.24-.5,2.16,20.9-.66.3C86.29,451.83,75.6,453.58,63.82,453.58Zm19.51-113c-15.45,0-28.82,3.87-39.74,11.52-17.29,11.53-27.2,31.19-27.2,53.95,0,27.63,18.62,45.49,47.43,45.49C75,451.58,85,450,91.68,447.24l-1.74-16.82A60.05,60.05,0,0,1,70,433.58c-18.84,0-30.09-11.24-30.09-30.09,0-15,5.64-28.1,15.48-36.05,6.74-5.59,15.86-8.67,25.66-8.67,8.65,0,15.5,1.63,19.23,3.2L106,344.79C102.65,343,94.26,340.62,83.33,340.62Z"/><path class="oic2020_logo_cls-2" d="M150.46,453.74c-27.14,0-45.38-18.76-45.38-46.67,0-20.59,7.65-40.24,20.46-52.57a58.58,58.58,0,0,1,40.68-15.88c14.07,0,25.72,4.61,33.69,13.35,7.54,8.25,11.52,19.77,11.52,33.32,0,20.57-7.4,40.16-19.8,52.4C180.78,448.19,166.54,453.74,150.46,453.74Zm15.76-113.12a56.57,56.57,0,0,0-39.29,15.32c-12.43,12-19.85,31.07-19.85,51.13,0,26.72,17.43,44.67,43.38,44.67,15.55,0,29.31-5.36,39.77-15.48,12-11.87,19.2-30.92,19.2-51C209.43,357.73,192.87,340.62,166.22,340.62Zm-12.35,93.61c-15.2,0-23.92-10.19-23.92-28,0-12.85,4.79-30.56,13.94-39.55a26.85,26.85,0,0,1,19.57-8.59c14.9,0,23.1,9.88,23.1,27.82,0,12.81-4.77,31.19-13.62,40C167.44,431.31,160.67,434.23,153.87,434.23Zm9.59-74.11a24.87,24.87,0,0,0-18.14,8h0c-8.76,8.61-13.35,25.7-13.35,38.14,0,16.51,8,26,21.92,26,6.27,0,12.55-2.72,17.67-7.68,8.45-8.45,13-26.2,13-38.61C184.56,374.16,180.9,360.12,163.46,360.12Z"/><path class="oic2020_logo_cls-2" d="M303.58,452H277.82l-15.51-44.39c-4.17-12.64-7.08-22.21-9.82-34.1-1.38,10-3.69,23.77-6.62,39.32L238.57,452H214.75l21.18-111.54h29l14.7,42.44c3.57,11.38,6.27,21.28,8.77,32.2a283.3,283.3,0,0,1,4.74-34l7.63-40.63H324.6Zm-24.34-2h22.68l20.26-107.54H302.44l-7.32,39c-3,15.47-4.52,27.55-5,39.19l0,1H287.8l-.17-.79c-2.82-13-5.78-24.19-9.89-37.29l-14.22-41.07H237.59L217.16,450H236.9l7-37.54c3.36-17.78,5.89-33.16,7.15-43.33l.07-.63,2.15-.72.23,1.09a346.7,346.7,0,0,0,10.7,38.1Z"/><path class="oic2020_logo_cls-2" d="M368.43,452H343l16.74-89.07H330.79l4.46-22.47H418.7l-4.28,22.47H385.17Zm-23-2h21.37l16.74-89.07h29.26l3.52-18.47h-79.4l-3.67,18.47h28.92Z"/><path class="oic2020_logo_cls-2" d="M477.81,452H408.65l21.18-111.54h66.9l-4.29,22H451.15L447,383.8h39l-4.12,21.67h-39L438.21,430h43.72Zm-66.74-2h65.08l3.37-18H435.79l5.42-28.49h39l3.36-17.67h-39l4.94-25.4h41.29l3.51-18H431.49Z"/><path class="oic2020_logo_cls-2" d="M522.17,453.58c-15.7,0-26.81-4.14-32-8l-.62-.46,8.54-21,1,.6a50.55,50.55,0,0,0,25.32,6.84c8.16,0,16.4-3.66,16.4-11.83,0-5.32-3.73-9.13-14.25-14.56-10.86-5.88-23.3-14.59-23.3-30,0-21.54,18.19-36.59,44.23-36.59,10.83,0,19.44,1.85,26.33,5.65l.76.42-8,21.39-1-.55a42.29,42.29,0,0,0-20-4.76c-7.52,0-15.59,3.3-15.59,10.54,0,5.63,5.85,9.2,15.41,14.57,15.2,8,22.29,17.44,22.29,29.8C567.7,438.7,549.83,453.58,522.17,453.58ZM492,444.42c5.15,3.54,15.55,7.16,30.15,7.16,26.45,0,43.53-14.09,43.53-35.9,0-11.53-6.75-20.44-21.24-28-8.85-5-16.46-9.24-16.46-16.33,0-6,5.5-12.54,17.57-12.54a45,45,0,0,1,19.94,4.47l6.61-17.63c-6.46-3.36-14.52-5-24.6-5-24.86,0-42.23,14.22-42.23,34.59,0,14.34,11.88,22.61,22.23,28.22,9.69,5,15.32,9.28,15.32,16.32,0,9.56-9.24,13.83-18.4,13.83A52.89,52.89,0,0,1,499.09,427Z"/><path class="oic2020_logo_cls-2" d="M621,452H595.57l16.74-89.07H583.37l4.46-22.47h83.45L667,362.88H637.75Zm-23-2h21.37l16.74-89.07h29.26l3.52-18.47h-79.4l-3.67,18.47h28.92Z"/><path class="oic2020_logo_cls-2" d="M79.93,618.78H5.74l3-16.67,23.05-17.79c20.13-16.41,34.4-29,34.4-41.46C66.24,535.55,61,531,52.61,531a40.79,40.79,0,0,0-21.74,6l-1.13.7L24.46,519l.64-.4a66,66,0,0,1,33.2-9.25c20.65,0,34,11.69,34,29.77,0,22-17.18,37-36.31,51.67l-8.36,6H84Zm-71.79-2H78.27l3.36-18H44V597l10.82-7.77c18.69-14.31,35.5-28.92,35.5-50.06,0-16.87-12.56-27.77-32-27.77a64,64,0,0,0-31.5,8.56L31,534.67A42.79,42.79,0,0,1,52.61,529c9.49,0,15.63,5.43,15.63,13.84,0,13.34-14.57,26.25-35.15,43L10.61,603.23Z"/><path class="oic2020_logo_cls-2" d="M132.41,620.57c-20,0-31.56-14.23-31.56-39,0-17.66,4.62-35.38,12.67-48.61,9.38-15.42,22.43-23.58,37.74-23.58,20,0,31.4,13.58,31.4,37.25C182.66,582.46,165.05,620.57,132.41,620.57Zm18.85-109.22c-18.42,0-29.76,12.3-36,22.62-7.86,12.93-12.37,30.27-12.37,47.57,0,32.22,18.52,37,29.56,37,31.34,0,48.25-37.08,48.25-72C180.66,515.93,162.24,511.35,151.26,511.35ZM135.34,602c-7.68,0-11.57-6.62-11.57-19.69,0-16.29,8.47-54.47,24.89-54.47,7.25,0,10.92,6.35,10.92,18.88C159.58,562,152.12,602,135.34,602Zm13.32-72.16c-14.87,0-22.89,37.24-22.89,52.47,0,11.91,3.13,17.69,9.57,17.69,14.44,0,22.24-37.82,22.24-53.28C157.58,535.4,154.66,529.88,148.66,529.88Z"/><path class="oic2020_logo_cls-2" d="M255.79,618.78H181.6l3-16.67,23.06-17.79c20.13-16.41,34.39-29,34.39-41.46,0-7.31-5.22-11.84-13.62-11.84a40.77,40.77,0,0,0-21.74,6l-1.13.7L200.32,519l.64-.4a66,66,0,0,1,33.19-9.25c20.66,0,34,11.69,34,29.77,0,22-17.18,37-36.31,51.67l-8.36,6H259.9Zm-71.8-2h70.14l3.36-18H219.83V597l10.82-7.77c18.69-14.31,35.5-28.92,35.5-50.06,0-16.87-12.56-27.77-32-27.77a64,64,0,0,0-31.49,8.56l4.15,14.76A42.79,42.79,0,0,1,228.47,529c9.49,0,15.62,5.43,15.62,13.84,0,13.34-14.56,26.25-35.15,43l-22.47,17.34Z"/><path class="oic2020_logo_cls-2" d="M308.27,620.57c-20.06,0-31.56-14.23-31.56-39,0-17.66,4.62-35.38,12.66-48.61,9.38-15.42,22.44-23.58,37.75-23.58,19.95,0,31.4,13.58,31.4,37.25C358.52,582.46,340.91,620.57,308.27,620.57Zm18.85-109.22c-18.42,0-29.76,12.3-36,22.62-7.86,12.93-12.37,30.27-12.37,47.57,0,32.22,18.52,37,29.56,37,31.34,0,48.25-37.08,48.25-72C356.52,515.93,338.1,511.35,327.12,511.35ZM311.19,602c-7.67,0-11.56-6.62-11.56-19.69,0-16.29,8.47-54.47,24.89-54.47,7.24,0,10.92,6.35,10.92,18.88C335.44,562,328,602,311.19,602Zm13.33-72.16c-14.87,0-22.89,37.24-22.89,52.47,0,11.91,3.13,17.69,9.56,17.69,14.45,0,22.25-37.82,22.25-53.28C333.44,535.4,330.52,529.88,324.52,529.88Z"/><path class="oic2020_logo_cls-2" d="M411.32,577.06H367.19l3.47-18.42h44.13Zm-41.72-2h40.06l2.71-14.42H372.31Z"/><path class="oic2020_logo_cls-2" d="M484,618.78H409.79l3-16.67,23.06-17.79c20.12-16.41,34.39-29,34.39-41.46,0-7.31-5.22-11.84-13.63-11.84a40.79,40.79,0,0,0-21.74,6l-1.13.7L428.51,519l.65-.4a66,66,0,0,1,33.19-9.25c20.65,0,34,11.69,34,29.77,0,22-17.17,37-36.31,51.67l-8.36,6H488.1Zm-71.79-2h70.13l3.37-18H448V597l10.82-7.77c18.7-14.31,35.5-28.92,35.5-50.06,0-16.87-12.56-27.77-32-27.77a64.08,64.08,0,0,0-31.5,8.56L435,534.67A42.79,42.79,0,0,1,456.66,529c9.49,0,15.63,5.43,15.63,13.84,0,13.34-14.57,26.25-35.15,43l-22.47,17.34Z"/></g></g></svg>