<svg xmlns="http://www.w3.org/2000/svg" viewBox="0 0 485.95 24.89"><defs><style>.logo_long_cls-1{fill:#fff;}.cls-2{fill:#0e0f0d;}</style></defs><g id="レイヤー_2" data-name="レイヤー 2"><g id="レイヤー_1-2" data-name="レイヤー 1"><path class="logo_long_cls-1" d="M21.48,9.4a15.08,15.08,0,0,1-4,10.65,11.7,11.7,0,0,1-8.33,3.24C3.28,23.29,0,19.14,0,13.89A15.07,15.07,0,0,1,4.15,3.21,11.81,11.81,0,0,1,12.38,0C18.34,0,21.48,4,21.48,9.4ZM7.93,5.72C6.12,7.5,5.12,11,5.12,13.72c0,3.18,1.44,5.56,4.72,5.56a5.53,5.53,0,0,0,3.78-1.64c1.77-1.78,2.74-5.49,2.74-8.1,0-2.81-1-5.52-4.55-5.52A5.35,5.35,0,0,0,7.93,5.72Z"/><path class="logo_long_cls-1" d="M22.62,22.92,26.9.37h5.66l3,8.6c.9,2.88,1.5,5.22,2,7.7h.1a54,54,0,0,1,1-8.1L40.26.37h4.48L40.49,22.92h-5l-3.15-9a71.2,71.2,0,0,1-2.21-7.86l-.1,0c-.27,2.18-.8,5.39-1.47,8.94l-1.47,7.89Z"/><path class="logo_long_cls-1" d="M49.19.37H54L50.53,18.71H59.2l-.81,4.21H44.91Z"/><path class="logo_long_cls-1" d="M70.21.37,65.92,22.92H61.1L65.39.37Z"/><path class="logo_long_cls-1" d="M70.37,22.92,74.66.37h5.65l3,8.6c.9,2.88,1.51,5.22,2,7.7h.1a54,54,0,0,1,1-8.1L88,.37h4.48L88.24,22.92h-5l-3.15-9A73.47,73.47,0,0,1,77.9,6.06l-.1,0c-.26,2.18-.8,5.39-1.47,8.94l-1.47,7.89Z"/><path class="logo_long_cls-1" d="M107.32,13.35h-8l-1,5.46h9l-.77,4.11H92.66L96.94.37H110.3l-.81,4.11H101l-.93,4.82h8Z"/><path class="logo_long_cls-1" d="M125.12.37l-4.28,22.55H116L120.3.37Z"/><path class="logo_long_cls-1" d="M125.29,22.92,129.57.37h5.66l3,8.6c.91,2.88,1.51,5.22,2.05,7.7h.1a55.16,55.16,0,0,1,1-8.1l1.54-8.2h4.49l-4.25,22.55h-5l-3.14-9a69.07,69.07,0,0,1-2.21-7.86l-.1,0c-.27,2.18-.81,5.39-1.48,8.94l-1.47,7.89Z"/><path class="logo_long_cls-1" d="M155.14,4.58h-6L150,.37h16.76L166,4.58h-6l-3.45,18.34h-4.82Z"/><path class="logo_long_cls-1" d="M179.87,13.35h-8l-1,5.46h9L179,22.92H165.21L169.49.37h13.35L182,4.48h-8.5L172.6,9.3h8Z"/><path class="logo_long_cls-1" d="M186.76.8a28.21,28.21,0,0,1,6-.6,11.67,11.67,0,0,1,5.93,1.31,4.89,4.89,0,0,1,2.51,4.41c0,3.35-2.25,5.42-5.12,6.36v.14c1.33.56,1.9,2.07,2.14,4.11.27,2.51.47,5.46.87,6.39h-5a34.52,34.52,0,0,1-.67-5.32c-.2-2.74-1.14-3.58-3.05-3.58H189l-1.68,8.9h-4.78Zm2.91,9.61h2c2.61,0,4.52-1.58,4.52-3.78,0-1.81-1.54-2.61-3.45-2.61a8,8,0,0,0-1.87.16Z"/><path class="logo_long_cls-1" d="M202,22.92,206.3.37H212l3,8.6c.9,2.88,1.5,5.22,2,7.7h.1a54,54,0,0,1,1-8.1l1.53-8.2h4.49l-4.25,22.55h-5l-3.14-9a69.07,69.07,0,0,1-2.21-7.86l-.1,0c-.27,2.18-.81,5.39-1.47,8.94l-1.48,7.89Z"/><path class="logo_long_cls-1" d="M247.4,22.29a15.58,15.58,0,0,1-6,1c-6,0-10-3.62-10-9.57a13.13,13.13,0,0,1,5.69-11.28A14.08,14.08,0,0,1,245.45,0a10.68,10.68,0,0,1,4.92,1l-1.3,3.92A9.86,9.86,0,0,0,245,4.15a8.06,8.06,0,0,0-5.16,1.74,9.16,9.16,0,0,0-3.11,7.26c0,3.58,2,6,6,6a12,12,0,0,0,4.28-.73Z"/><path class="logo_long_cls-1" d="M271.62,9.4a15.08,15.08,0,0,1-4,10.65,11.7,11.7,0,0,1-8.33,3.24c-5.86,0-9.14-4.15-9.14-9.4a15.07,15.07,0,0,1,4.15-10.68A11.81,11.81,0,0,1,262.52,0C268.48,0,271.62,4,271.62,9.4ZM258.07,5.72c-1.81,1.78-2.81,5.29-2.81,8,0,3.18,1.44,5.56,4.72,5.56a5.53,5.53,0,0,0,3.78-1.64c1.77-1.78,2.74-5.49,2.74-8.1,0-2.81-1-5.52-4.55-5.52A5.35,5.35,0,0,0,258.07,5.72Z"/><path class="logo_long_cls-1" d="M272.76,22.92,277,.37h5.66l3,8.6c.9,2.88,1.5,5.22,2,7.7h.1a54,54,0,0,1,1-8.1L290.4.37h4.48l-4.25,22.55h-5l-3.14-9a69.07,69.07,0,0,1-2.21-7.86l-.1,0c-.27,2.18-.8,5.39-1.47,8.94l-1.48,7.89Z"/><path class="logo_long_cls-1" d="M302.61,4.58h-6l.84-4.21h16.77l-.81,4.21h-6L304,22.92h-4.82Z"/><path class="logo_long_cls-1" d="M327.34,13.35h-8l-1,5.46h9l-.77,4.11H312.68L317,.37h13.35l-.8,4.11H321l-.94,4.82h8Z"/><path class="logo_long_cls-1" d="M331,17.7a10.55,10.55,0,0,0,5.32,1.44c1.88,0,3.59-.87,3.59-2.64,0-1.27-1-2.11-3.05-3.18-2.41-1.31-4.69-3.05-4.69-6,0-4.55,4-7.33,8.91-7.33a10.62,10.62,0,0,1,5.32,1.14l-1.51,4a9,9,0,0,0-4.21-1c-2.25,0-3.42,1.14-3.42,2.38s1.37,2.1,3.28,3.18C343.24,11.14,345,13,345,15.66c0,5-4.15,7.6-9.17,7.6a11.24,11.24,0,0,1-6.46-1.61Z"/><path class="logo_long_cls-1" d="M354.61,4.58h-5.95l.83-4.21h16.77l-.8,4.21h-6L356,22.92h-4.81Z"/><path class="logo_long_cls-1" d="M370.11,22.92l.56-3.11,4.69-3.61c4.35-3.55,7.16-6.09,7.16-8.7,0-1.54-1.07-2.65-3-2.65a8.61,8.61,0,0,0-4.59,1.27l-1-3.44A13.44,13.44,0,0,1,380.68.8c4.42,0,6.79,2.58,6.79,5.93,0,4.45-3.54,7.53-7.39,10.47l-2.14,1.54v.07h7.79L385,22.92Z"/><path class="logo_long_cls-1" d="M406.08,8.27c0,6.79-3.28,15-10.14,15-4.52,0-6.29-3.48-6.29-7.83C389.65,8.6,393.13.8,399.82.8,404.51.8,406.08,4.38,406.08,8.27Zm-11.71,7.36c0,1.6.26,3.85,2.17,3.85,3.32,0,4.79-8.3,4.79-11.18,0-1.44-.2-3.68-2-3.68C396,4.62,394.37,12.45,394.37,15.63Z"/><path class="logo_long_cls-1" d="M406.31,22.92l.57-3.11,4.69-3.61c4.35-3.55,7.16-6.09,7.16-8.7,0-1.54-1.07-2.65-3-2.65a8.61,8.61,0,0,0-4.59,1.27l-1-3.44A13.44,13.44,0,0,1,416.89.8c4.42,0,6.79,2.58,6.79,5.93,0,4.45-3.55,7.53-7.39,10.47l-2.15,1.54v.07h7.8l-.77,4.11Z"/><path class="logo_long_cls-1" d="M442.29,8.27c0,6.79-3.28,15-10.14,15-4.52,0-6.29-3.48-6.29-7.83C425.86,8.6,429.34.8,436,.8,440.71.8,442.29,4.38,442.29,8.27Zm-11.72,7.36c0,1.6.27,3.85,2.18,3.85,3.31,0,4.78-8.3,4.78-11.18,0-1.44-.2-3.68-2-3.68C432.25,4.62,430.57,12.45,430.57,15.63Z"/><path class="logo_long_cls-1" d="M450.35,22.92l1.91-6h-2.75l.51-3h3.21l1.24-3.85h-2.85l.5-3h3.28l1.88-5.89h2.91l-1.88,5.89h2.95l1.87-5.89h2.95L464.2,7.06h2.72l-.51,3h-3.14l-1.21,3.85h2.78l-.5,3h-3.28l-1.87,6h-3l1.9-6H455.2l-1.87,6Zm8.73-9,1.24-3.85h-2.91l-1.2,3.85Z"/><path class="logo_long_cls-1" d="M466.78,22.92l.57-3.11L472,16.2c4.36-3.55,7.17-6.09,7.17-8.7,0-1.54-1.07-2.65-3-2.65a8.57,8.57,0,0,0-4.58,1.27l-1-3.44A13.44,13.44,0,0,1,477.36.8c4.41,0,6.79,2.58,6.79,5.93,0,4.45-3.55,7.53-7.4,10.47l-2.14,1.54v.07h7.8l-.77,4.11Z"/><path class="cls-2" d="M10.56,24.89c-5.68,0-9.5-3.93-9.5-9.78A15.34,15.34,0,0,1,5.32,4.17,12.22,12.22,0,0,1,13.81.86c5.75,0,9.47,3.83,9.47,9.77a15.5,15.5,0,0,1-4.12,10.9A12.07,12.07,0,0,1,10.56,24.89Zm3.25-23.3a11.52,11.52,0,0,0-8,3.11,14.65,14.65,0,0,0-4,10.41c0,5.41,3.52,9,8.76,9A11.38,11.38,0,0,0,18.64,21a14.79,14.79,0,0,0,3.91-10.38C22.55,5.06,19.2,1.59,13.81,1.59ZM11.27,20.87c-3.19,0-5.09-2.21-5.09-5.92,0-2.6.91-6.29,2.92-8.26a5.67,5.67,0,0,1,4.14-1.82c3.17,0,4.92,2.1,4.92,5.89,0,2.67-1,6.51-2.85,8.36A5.86,5.86,0,0,1,11.27,20.87Zm2-15.26A5,5,0,0,0,9.62,7.2h0C7.84,9,6.92,12.42,6.92,15c0,4.51,2.72,5.18,4.35,5.18a5.09,5.09,0,0,0,3.52-1.53c1.71-1.71,2.63-5.31,2.63-7.84C17.42,8.41,16.7,5.61,13.24,5.61Z"/><path class="cls-2" d="M42.22,24.52H36.67l-3.23-9.25c-.76-2.31-1.32-4.12-1.83-6.21-.29,2-.72,4.47-1.24,7.26l-1.53,8.2H23.6L28,1.23h6.22l3.06,8.84c.63,2,1.13,3.78,1.58,5.65.17-1.79.46-3.72.89-6l1.6-8.49h5.23Zm-5-.74h4.42L45.73,2H42l-1.48,7.9a53.87,53.87,0,0,0-1,8.05l0,.35h-.75L38.65,18c-.58-2.68-1.19-5-2-7.67L33.73,2H28.64L24.49,23.78h3.74l1.41-7.6c.69-3.65,1.22-6.82,1.47-8.91l0-.23.71-.24.09.4A71.27,71.27,0,0,0,34.14,15Z"/><path class="cls-2" d="M60.13,24.52H45.89L50.31,1.23h5.57L52.4,19.57h8.67Zm-13.35-.74H59.52l.66-3.48H51.51L55,2H50.92Z"/><path class="cls-2" d="M67.66,24.52H62.09L66.51,1.23h5.57ZM63,23.78h4.07L71.19,2H67.12Z"/><path class="cls-2" d="M90,24.52H84.42l-3.23-9.25c-.76-2.31-1.32-4.12-1.83-6.21-.29,2-.71,4.47-1.24,7.26l-1.53,8.2H71.36L75.78,1.23H82l3.07,8.84c.62,2,1.12,3.78,1.57,5.65.17-1.79.46-3.72.9-6l1.59-8.49h5.24Zm-5-.74h4.42L93.48,2H89.74l-1.48,7.9a53.87,53.87,0,0,0-1,8.05l0,.35h-.75L86.4,18c-.58-2.68-1.19-5-2-7.67L81.48,2H76.39L72.25,23.78H76l1.42-7.6c.69-3.65,1.21-6.82,1.47-8.91l0-.23.71-.24.09.4A71.27,71.27,0,0,0,81.89,15Z"/><path class="cls-2" d="M108.21,24.52H93.64L98.07,1.23h14.1l-1,4.85h-8.5l-.79,4.08h8L109.05,15h-8l-.9,4.72h9Zm-13.68-.74H107.6l.64-3.38h-9l1.18-6.19h8l.63-3.31h-8l1.08-5.56h8.5L111.28,2H98.68Z"/><path class="cls-2" d="M122.57,24.52H117l4.42-23.29H127Zm-4.68-.74H122L126.1,2H122Z"/><path class="cls-2" d="M144.89,24.52h-5.55l-3.23-9.25c-.77-2.31-1.32-4.12-1.83-6.21-.29,2-.72,4.47-1.25,7.26l-1.53,8.2h-5.23l4.42-23.29h6.23L140,10.07c.63,2,1.13,3.78,1.58,5.65a59.59,59.59,0,0,1,.89-6l1.6-8.49h5.23Zm-5-.74h4.42L148.39,2h-3.73l-1.49,7.9a55.22,55.22,0,0,0-1,8.05v.35h-.75l-.07-.29a79.06,79.06,0,0,0-2-7.67L136.39,2H131.3l-4.14,21.82h3.73l1.42-7.6c.69-3.65,1.21-6.82,1.47-8.91l0-.23.71-.24.08.4A71.27,71.27,0,0,0,136.8,15Z"/><path class="cls-2" d="M158.24,24.52h-5.57l3.45-18.34h-6l1-4.95h17.52l-.95,4.95h-6Zm-4.68-.74h4.07l3.45-18.34h6L167.77,2h-16l-.69,3.48H157Z"/><path class="cls-2" d="M180.76,24.52H166.19l4.43-23.29h14.1l-.95,4.85h-8.5l-.79,4.08h8L181.6,15h-8l-.9,4.72h9Zm-13.68-.74h13.07l.63-3.38h-9L173,14.21h8l.63-3.31h-8l1.08-5.56h8.5L183.83,2H171.22Z"/><path class="cls-2" d="M201.09,24.52h-5.77l-.09-.25a36.55,36.55,0,0,1-.68-5.41c-.2-2.73-1.1-3.24-2.68-3.24H190.7L189,24.52h-5.54l4.38-22.79.23-.06a28.18,28.18,0,0,1,6.11-.61,12.14,12.14,0,0,1,6.12,1.36A5.23,5.23,0,0,1,203,7.15c0,3-1.72,5.29-4.75,6.49,1.26.92,1.62,2.73,1.77,4.08.06.54.11,1.11.17,1.66a25,25,0,0,0,.67,4.62Zm-5.22-.74H200a35.18,35.18,0,0,1-.56-4.32c-.06-.56-.11-1.12-.17-1.66-.25-2.15-.86-3.37-1.92-3.82l-.22-.1v-.64l.25-.08c1.82-.59,4.87-2.16,4.87-6A4.55,4.55,0,0,0,200,3.05a11.49,11.49,0,0,0-5.74-1.26,28.62,28.62,0,0,0-5.71.54l-4.12,21.45h4l1.67-8.9h1.78c2.22,0,3.21,1.14,3.41,3.92A42.69,42.69,0,0,0,195.87,23.78ZM193.11,12h-2.46L192,5.11l.22-.06a8.45,8.45,0,0,1,2-.18c2.35,0,3.81,1.14,3.81,3C198,10.26,195.94,12,193.11,12Zm-1.57-.73h1.57c2.4,0,4.15-1.44,4.15-3.42s-2.16-2.24-3.08-2.24a8.28,8.28,0,0,0-1.56.11Z"/><path class="cls-2" d="M221.62,24.52h-5.55l-3.23-9.25c-.76-2.31-1.32-4.12-1.83-6.21-.29,2-.72,4.47-1.24,7.26l-1.53,8.2H203l4.43-23.29h6.22l3.06,8.84c.63,2,1.13,3.78,1.58,5.65.17-1.79.46-3.72.89-6l1.6-8.49H226Zm-5-.74H221L225.12,2h-3.73l-1.48,7.9a55.38,55.38,0,0,0-1,8.05v.35h-.75l-.06-.29c-.58-2.68-1.19-5-2-7.67L213.12,2H208l-4.14,21.82h3.74l1.41-7.6c.69-3.65,1.21-6.82,1.47-8.91l0-.23.71-.24.09.4A69.05,69.05,0,0,0,213.53,15Z"/><path class="cls-2" d="M242.87,24.85c-6.28,0-10.34-3.9-10.34-9.94a13.56,13.56,0,0,1,5.85-11.58,14.5,14.5,0,0,1,8.5-2.47,11,11,0,0,1,5.12,1l.24.15-1.53,4.59-.38-.19a9.59,9.59,0,0,0-3.92-.7A7.64,7.64,0,0,0,241.5,7.4a8.8,8.8,0,0,0-3,7c0,3.57,2,5.62,5.62,5.62a11.37,11.37,0,0,0,4.14-.71l.46-.19.48,4.64-.25.11A16,16,0,0,1,242.87,24.85Zm4-23.26a13.81,13.81,0,0,0-8.09,2.35,12.85,12.85,0,0,0-5.53,11c0,5.59,3.77,9.21,9.61,9.21a16.11,16.11,0,0,0,5.56-.84l-.32-3.14a12.83,12.83,0,0,1-4,.6c-4,0-6.36-2.38-6.36-6.36A9.53,9.53,0,0,1,241,6.83,8.43,8.43,0,0,1,246.41,5a11.28,11.28,0,0,1,3.86.61l1.09-3.25A11.66,11.66,0,0,0,246.88,1.59Z"/><path class="cls-2" d="M260.7,24.89c-5.68,0-9.5-3.93-9.5-9.78a15.34,15.34,0,0,1,4.26-10.94A12.22,12.22,0,0,1,264,.86c5.75,0,9.47,3.83,9.47,9.77a15.46,15.46,0,0,1-4.13,10.9A12,12,0,0,1,260.7,24.89ZM264,1.59a11.52,11.52,0,0,0-8,3.11,14.6,14.6,0,0,0-4,10.41c0,5.41,3.52,9,8.76,9A11.38,11.38,0,0,0,268.78,21a14.78,14.78,0,0,0,3.9-10.38C272.68,5.06,269.34,1.59,264,1.59Zm-2.54,19.28c-3.19,0-5.09-2.21-5.09-5.92,0-2.6.91-6.29,2.92-8.26a5.67,5.67,0,0,1,4.14-1.82c3.17,0,4.92,2.1,4.92,5.89,0,2.67-1,6.51-2.85,8.36A5.86,5.86,0,0,1,261.41,20.87Zm2-15.26a5,5,0,0,0-3.62,1.59h0C258,9,257.06,12.42,257.06,15c0,4.51,2.72,5.18,4.35,5.18a5.09,5.09,0,0,0,3.52-1.53c1.71-1.71,2.63-5.31,2.63-7.84C267.56,8.41,266.84,5.61,263.38,5.61Z"/><path class="cls-2" d="M292.36,24.52h-5.55l-3.23-9.25c-.76-2.31-1.32-4.12-1.83-6.21-.29,2-.72,4.47-1.24,7.26L279,24.52h-5.24l4.43-23.29h6.22l3.06,8.84c.63,2,1.13,3.78,1.58,5.65.17-1.79.46-3.72.89-6l1.6-8.49h5.23Zm-5-.74h4.42L295.87,2h-3.74l-1.48,7.9a53.87,53.87,0,0,0-1,8.05l0,.35h-.75l-.06-.29c-.58-2.68-1.19-5-2-7.67L283.87,2h-5.09l-4.15,21.82h3.74l1.41-7.6c.69-3.65,1.22-6.82,1.47-8.91l0-.23L282,6.8l.09.4a71.27,71.27,0,0,0,2.2,7.83Z"/><path class="cls-2" d="M305.72,24.52h-5.57l3.44-18.34h-6l1-4.95h17.51l-.94,4.95h-6ZM301,23.78h4.08l3.44-18.34h6L315.24,2h-16l-.69,3.48h6Z"/><path class="cls-2" d="M328.24,24.52H313.67l4.42-23.29h14.1l-.94,4.85h-8.5l-.8,4.08h8L329.07,15h-8l-.9,4.72h9Zm-13.69-.74h13.08l.63-3.38h-9l1.18-6.19h8l.63-3.31h-8l1.08-5.56h8.5L331.3,2H318.7Z"/><path class="cls-2" d="M337.23,24.85c-4.12,0-6.15-1.28-6.68-1.68l-.22-.17,1.87-4.61.37.22A10.27,10.27,0,0,0,337.7,20c1.6,0,3.22-.7,3.22-2.28,0-1-.75-1.76-2.85-2.85-2.28-1.23-4.88-3.06-4.88-6.32C333.19,4,337,.86,342.45.86A11.27,11.27,0,0,1,348,2l.28.16-1.76,4.71-.38-.21a8.64,8.64,0,0,0-4-1c-2.1,0-3.05,1-3.05,2s1.17,1.78,3.09,2.86c3.14,1.65,4.67,3.7,4.67,6.28C346.77,21.73,343,24.85,337.23,24.85Zm-6-2.11a11.51,11.51,0,0,0,6,1.38c5.35,0,8.81-2.84,8.81-7.23,0-2.31-1.37-4.1-4.29-5.63-1.87-1-3.48-2-3.48-3.51,0-1.32,1.19-2.74,3.78-2.74a9.35,9.35,0,0,1,4,.86l1.25-3.33a10.83,10.83,0,0,0-4.87-.95c-5,0-8.53,2.87-8.53,7,0,2.87,2.4,4.54,4.49,5.67s3.24,2,3.24,3.5c0,2.08-2,3-3.95,3a11.21,11.21,0,0,1-5.14-1.28Z"/><path class="cls-2" d="M357.72,24.52h-5.57L355.6,6.18h-6l1-4.95h17.51l-.94,4.95h-6ZM353,23.78h4.07l3.44-18.34h6L367.24,2h-16l-.69,3.48h6Z"/><path class="cls-2" d="M386.7,24.52H371.09l.68-3.69,4.79-3.7c4.11-3.35,7-5.91,7-8.41,0-1.42-1-2.27-2.64-2.27a8.26,8.26,0,0,0-4.39,1.21l-.42.26L375,3.74l.24-.15a13.72,13.72,0,0,1,6.92-1.93c4.35,0,7.16,2.47,7.16,6.29,0,4.62-3.57,7.73-7.54,10.77l-1.32,1h7.2ZM372,23.78h14.12l.63-3.38H379v-.62l2.29-1.65c3.81-2.92,7.24-5.9,7.24-10.18,0-3.37-2.52-5.55-6.42-5.55a13.08,13.08,0,0,0-6.3,1.67l.77,2.72a9,9,0,0,1,4.36-1.08c2.05,0,3.38,1.18,3.38,3,0,2.82-3,5.5-7.3,9l-4.58,3.53Z"/><path class="cls-2" d="M397.37,24.89c-4.23,0-6.66-3-6.66-8.2a20,20,0,0,1,2.63-10.1c2-3.22,4.7-4.93,7.91-4.93,4.21,0,6.63,2.86,6.63,7.83C407.88,17,404.19,24.89,397.37,24.89ZM401.25,2.4c-4.75,0-9.81,5-9.81,14.29,0,2.78.77,7.46,5.93,7.46,4.74,0,9.77-5.14,9.77-14.66C407.14,6.84,406.37,2.4,401.25,2.4ZM398,21.07c-1.69,0-2.54-1.42-2.54-4.22,0-3.13,1.62-11.37,5.28-11.37,1.6,0,2.41,1.36,2.41,4A25.73,25.73,0,0,1,402,16.31C401,19.42,399.58,21.07,398,21.07Zm2.74-14.86c-2.83,0-4.55,7.39-4.55,10.64,0,3.48,1.36,3.48,1.81,3.48,2.87,0,4.42-7.67,4.42-10.8C402.39,7.3,401.84,6.21,400.71,6.21Z"/><path class="cls-2" d="M422.91,24.52H407.3l.67-3.69,4.8-3.7c4.11-3.35,7-5.91,7-8.41,0-1.42-1-2.27-2.65-2.27a8.31,8.31,0,0,0-4.39,1.21l-.41.26-1.18-4.18.24-.15a13.72,13.72,0,0,1,6.92-1.93c4.35,0,7.16,2.47,7.16,6.29,0,4.62-3.57,7.73-7.54,10.77l-1.32,1h7.19Zm-14.73-.74h14.11l.64-3.38H415.2v-.62l2.3-1.65c3.81-2.92,7.24-5.9,7.24-10.18,0-3.37-2.52-5.55-6.42-5.55A13.08,13.08,0,0,0,412,4.07l.77,2.72a8.94,8.94,0,0,1,4.35-1.08c2.06,0,3.38,1.18,3.38,3,0,2.82-3,5.5-7.29,9l-4.58,3.53Z"/><path class="cls-2" d="M433.57,24.89c-4.23,0-6.65-3-6.65-8.2a19.87,19.87,0,0,1,2.63-10.1c2-3.22,4.69-4.93,7.91-4.93,4.21,0,6.62,2.86,6.62,7.83C444.08,17,440.4,24.89,433.57,24.89ZM437.46,2.4c-4.76,0-9.81,5-9.81,14.29,0,2.78.77,7.46,5.92,7.46,4.74,0,9.78-5.14,9.78-14.66C443.35,6.84,442.58,2.4,437.46,2.4Zm-3.28,18.67c-1.69,0-2.55-1.42-2.55-4.22,0-3.13,1.63-11.37,5.29-11.37,1.6,0,2.41,1.36,2.41,4a25.39,25.39,0,0,1-1.17,6.78C437.16,19.42,435.78,21.07,434.18,21.07Zm2.74-14.86c-2.83,0-4.55,7.39-4.55,10.64,0,3.48,1.36,3.48,1.81,3.48,2.87,0,4.42-7.67,4.42-10.8C438.6,7.3,438.05,6.21,436.92,6.21Z"/><path class="cls-2" d="M460.88,24.52h-3.75l1.91-6H456.9l-1.87,6h-3.75l1.9-6h-2.67l.62-3.75h3.26l1-3.11h-2.77l.62-3.75h3.32L458.44,2h3.68l-1.87,5.89h2.17L464.29,2H468l-1.87,5.89h2.64l-.63,3.75H465l-1,3.11h2.71l-.62,3.75h-3.32Zm-2.74-.74h2.2l1.88-6h3.24l.37-2.27H463l1.44-4.59h3.1l.38-2.28h-2.78L467,2.76h-2.17L463,8.65h-3.72l1.87-5.89H459L457.1,8.65h-3.24l-.38,2.28h2.92l-1.48,4.59h-3.16l-.38,2.27h2.81l-1.91,6h2.21l1.87-6h3.69Zm2.64-8.26h-3.65l1.44-4.59h3.69Zm-2.64-.74h2.1l1-3.11h-2.14Z"/><path class="cls-2" d="M483.37,24.52h-15.6l.67-3.69,4.8-3.7c4.1-3.35,7-5.91,7-8.41,0-1.42-1-2.27-2.65-2.27a8.31,8.31,0,0,0-4.39,1.21l-.41.26-1.18-4.18.23-.15a13.75,13.75,0,0,1,6.92-1.93C483.13,1.66,486,4.13,486,8c0,4.62-3.57,7.73-7.55,10.77l-1.31,1h7.19Zm-14.72-.74h14.11l.63-3.38h-7.72v-.62l2.3-1.65c3.81-2.92,7.24-5.9,7.24-10.18,0-3.37-2.52-5.55-6.43-5.55a13.08,13.08,0,0,0-6.29,1.67l.76,2.72a9,9,0,0,1,4.36-1.08c2.06,0,3.38,1.18,3.38,3,0,2.82-3,5.5-7.29,9l-4.59,3.53Z"/></g></g></svg>