<svg viewBox="0 0 472.29 24.73" xmlns="http://www.w3.org/2000/svg"><g fill="#fff"><path  class="logo_long_cls-1"  d="m21.48 9.4a15.09 15.09 0 0 1 -4 10.64 11.73 11.73 0 0 1 -8.33 3.25c-5.87 0-9.15-4.15-9.15-9.4a15.05 15.05 0 0 1 4.15-10.68 11.81 11.81 0 0 1 8.23-3.21c5.96 0 9.1 4 9.1 9.4zm-13.55-3.68c-1.81 1.78-2.81 5.28-2.81 8 0 3.18 1.44 5.55 4.72 5.55a5.49 5.49 0 0 0 3.78-1.64c1.77-1.77 2.74-5.48 2.74-8.09 0-2.81-1-5.52-4.55-5.52a5.35 5.35 0 0 0 -3.88 1.7z"/><path  class="logo_long_cls-1"  d="m22.62 22.92 4.28-22.55h5.66l3 8.6c.9 2.88 1.5 5.22 2 7.69h.1a54.06 54.06 0 0 1 1-8.09l1.6-8.2h4.48l-4.25 22.55h-5l-3.14-9a69.07 69.07 0 0 1 -2.21-7.86h-.1c-.27 2.18-.8 5.39-1.47 8.93l-1.48 7.9z"/><path  class="logo_long_cls-1"  d="m49.19.37h4.81l-3.47 18.34h8.66l-.8 4.21h-13.48z"/><path  class="logo_long_cls-1"  d="m70.2.37-4.28 22.55h-4.82l4.29-22.55z"/><path  class="logo_long_cls-1"  d="m70.37 22.92 4.28-22.55h5.66l3 8.6c.9 2.88 1.5 5.22 2 7.69h.1a54.06 54.06 0 0 1 1-8.09l1.59-8.2h4.48l-4.24 22.55h-5l-3.14-9a71.2 71.2 0 0 1 -2.2-7.86h-.1c-.27 2.18-.8 5.39-1.47 8.93l-1.47 7.9z"/><path  class="logo_long_cls-1"  d="m107.31 13.35h-8l-1 5.46h9l-.77 4.11h-13.88l4.28-22.55h13.35l-.8 4.11h-8.49l-.94 4.82h8z"/><path  class="logo_long_cls-1"  d="m125.12.37-4.29 22.55h-4.83l4.3-22.55z"/><path  class="logo_long_cls-1"  d="m125.28 22.92 4.29-22.55h5.65l3 8.6c.9 2.88 1.51 5.22 2 7.69h.1a54.06 54.06 0 0 1 1-8.09l1.54-8.2h4.48l-4.25 22.55h-5l-3.15-9a71.2 71.2 0 0 1 -2.21-7.86h-.1c-.27 2.18-.8 5.39-1.47 8.93l-1.47 7.9z"/><path  class="logo_long_cls-1"  d="m155.13 4.58h-5.95l.82-4.21h16.77l-.77 4.21h-6l-3.5 18.34h-4.82z"/><path  class="logo_long_cls-1"  d="m179.86 13.35h-8l-1 5.46h9l-.86 4.11h-13.8l4.29-22.55h13.35l-.84 4.11h-8.5l-.9 4.82h8z"/><path  class="logo_long_cls-1"  d="m186.75.8a27.67 27.67 0 0 1 6-.6 11.63 11.63 0 0 1 5.92 1.31 4.88 4.88 0 0 1 2.51 4.41c0 3.35-2.24 5.42-5.12 6.36v.13c1.34.57 1.91 2.08 2.14 4.12.27 2.51.47 5.45.87 6.39h-4.95a35.93 35.93 0 0 1 -.67-5.32c-.2-2.74-1.14-3.58-3-3.58h-1.45l-1.67 8.9h-4.83zm2.92 9.61h2c2.61 0 4.52-1.58 4.52-3.78 0-1.81-1.54-2.61-3.45-2.61a8 8 0 0 0 -1.87.16z"/><path  class="logo_long_cls-1"  d="m202 22.92 4.3-22.55h5.7l3 8.6c.9 2.88 1.51 5.22 2 7.69h.1a54.06 54.06 0 0 1 1-8.09l1.54-8.2h4.48l-4.25 22.55h-5l-3.15-9a71.2 71.2 0 0 1 -2.21-7.86h-.1c-.27 2.18-.8 5.39-1.47 8.93l-1.47 7.9z"/><path  class="logo_long_cls-1"  d="m247.39 22.29a15.58 15.58 0 0 1 -6 1c-6 0-10-3.62-10-9.57a13.14 13.14 0 0 1 5.69-11.28 14.09 14.09 0 0 1 8.37-2.44 10.75 10.75 0 0 1 4.92 1l-1.31 3.92a9.86 9.86 0 0 0 -4.06-.77 8 8 0 0 0 -5.15 1.74 9.13 9.13 0 0 0 -3.12 7.26c0 3.58 2 6 6 6a11.8 11.8 0 0 0 4.27-.75z"/><path  class="logo_long_cls-1"  d="m271.62 9.4a15 15 0 0 1 -4 10.64 11.71 11.71 0 0 1 -8.33 3.25c-5.86 0-9.14-4.15-9.14-9.4a15.05 15.05 0 0 1 4.15-10.68 11.81 11.81 0 0 1 8.21-3.21c5.96 0 9.11 4 9.11 9.4zm-13.56-3.68c-1.8 1.78-2.81 5.29-2.81 8 0 3.18 1.44 5.55 4.72 5.55a5.47 5.47 0 0 0 3.78-1.64c1.77-1.77 2.75-5.48 2.75-8.09 0-2.81-1-5.52-4.56-5.52a5.35 5.35 0 0 0 -3.88 1.7z"/><path  class="logo_long_cls-1"  d="m272.75 22.92 4.25-22.55h5.65l3 8.6c.9 2.88 1.51 5.22 2 7.69h.1a54.06 54.06 0 0 1 1-8.09l1.54-8.2h4.48l-4.25 22.55h-5l-3.15-9a71.2 71.2 0 0 1 -2.21-7.86h-.1c-.27 2.18-.8 5.39-1.47 8.93l-1.47 7.9z"/><path  class="logo_long_cls-1"  d="m302.6 4.58h-6l.83-4.21h16.77l-.81 4.21h-6l-3.39 18.34h-4.82z"/><path  class="logo_long_cls-1"  d="m327.33 13.35h-8l-1 5.46h9l-.77 4.11h-13.89l4.33-22.55h13.35l-.8 4.11h-8.55l-.94 4.82h8z"/><path  class="logo_long_cls-1"  d="m330.94 17.7a10.66 10.66 0 0 0 5.33 1.44c1.87 0 3.58-.87 3.58-2.64 0-1.27-1-2.11-3.05-3.18-2.41-1.31-4.68-3.05-4.68-6 0-4.55 4-7.33 8.9-7.33a10.62 10.62 0 0 1 5.32 1.14l-1.51 4a9 9 0 0 0 -4.21-1c-2.25 0-3.42 1.14-3.42 2.38s1.37 2.1 3.28 3.17c2.75 1.44 4.49 3.28 4.49 6 0 5-4.15 7.6-9.17 7.6a11.32 11.32 0 0 1 -6.46-1.61z"/><path  class="logo_long_cls-1"  d="m354.6 4.58h-6l.83-4.21h16.77l-.81 4.21h-6l-3.39 18.34h-4.81z"/><path  class="logo_long_cls-1"  d="m370.1 22.92.56-3.11 4.69-3.61c4.35-3.55 7.16-6.09 7.16-8.7 0-1.54-1.07-2.65-3-2.65a8.61 8.61 0 0 0 -4.59 1.27l-1-3.44a13.44 13.44 0 0 1 6.75-1.88c4.42 0 6.79 2.58 6.79 5.93 0 4.45-3.54 7.52-7.39 10.47l-2.14 1.54v.07h7.79l-.72 4.11z"/><path  class="logo_long_cls-1"  d="m406.07 8.27c0 6.79-3.28 15-10.14 15-4.52 0-6.29-3.48-6.29-7.83 0-6.84 3.48-14.64 10.17-14.64 4.68 0 6.26 3.58 6.26 7.47zm-11.71 7.36c0 1.6.26 3.84 2.17 3.84 3.31 0 4.79-8.29 4.79-11.17 0-1.44-.2-3.68-2.05-3.68-3.27 0-4.91 7.83-4.91 11.01z"/><path  class="logo_long_cls-1"  d="m406.3 22.92.57-3.11 4.69-3.61c4.35-3.55 7.16-6.09 7.16-8.7 0-1.54-1.07-2.65-3-2.65a8.57 8.57 0 0 0 -4.58 1.27l-1-3.44a13.44 13.44 0 0 1 6.74-1.88c4.41 0 6.79 2.58 6.79 5.93 0 4.45-3.55 7.52-7.4 10.47l-2.14 1.54v.07h7.8l-.77 4.11z"/><path  class="logo_long_cls-1"  d="m442.27 8.27c0 6.79-3.28 15-10.14 15-4.51 0-6.29-3.48-6.29-7.83 0-6.84 3.48-14.64 10.16-14.64 4.7 0 6.27 3.58 6.27 7.47zm-11.71 7.36c0 1.6.27 3.84 2.18 3.84 3.31 0 4.78-8.29 4.78-11.17 0-1.44-.2-3.68-2-3.68-3.28 0-4.96 7.83-4.96 11.01z"/><path  class="logo_long_cls-1"  d="m452.75 12.45-.64 3.38h-8.66l.63-3.38z"/><path  class="logo_long_cls-1"  d="m453.28 22.92.57-3.11 4.69-3.61c4.35-3.55 7.16-6.09 7.16-8.7 0-1.54-1.07-2.65-3-2.65a8.61 8.61 0 0 0 -4.59 1.27l-1-3.44a13.44 13.44 0 0 1 6.75-1.88c4.41 0 6.79 2.58 6.79 5.93 0 4.45-3.55 7.52-7.4 10.47l-2.14 1.54v.07h7.8l-.77 4.11z"/></g><path  class="logo_long_cls-1"  d="m10.56 24.73c-5.59 0-9.35-3.87-9.35-9.62a15.19 15.19 0 0 1 4.22-10.83 12.05 12.05 0 0 1 8.38-3.28c5.75 0 9.31 3.69 9.31 9.62a15.34 15.34 0 0 1 -4.07 10.79 11.91 11.91 0 0 1 -8.49 3.32zm3.25-23.29a11.67 11.67 0 0 0 -8.09 3.15 14.77 14.77 0 0 0 -4.08 10.52c0 5.5 3.59 9.19 8.92 9.19a11.54 11.54 0 0 0 8.19-3.18 15 15 0 0 0 3.95-10.49c0-5.63-3.41-9.19-8.89-9.19zm-2.54 19.27c-3.14 0-4.94-2.1-4.94-5.77 0-2.64 1-6.29 2.88-8.14a5.51 5.51 0 0 1 4-1.77c3.07 0 4.76 2 4.76 5.73 0 2.64-1 6.43-2.8 8.25a5.69 5.69 0 0 1 -3.9 1.7zm2-15.26a5.1 5.1 0 0 0 -3.76 1.65c-1.8 1.77-2.75 5.29-2.75 7.84 0 3.4 1.64 5.35 4.51 5.35a5.3 5.3 0 0 0 3.63-1.58c1.74-1.74 2.68-5.4 2.68-8s-.76-5.26-4.34-5.26z" fill="#0e0f0d"/><path  class="logo_long_cls-1"  d="m42.09 24.36h-5.31l-3.2-9.14c-.85-2.59-1.45-4.55-2-7-.28 2.06-.75 4.87-1.35 8l-1.51 8.07h-4.93l4.36-23h6l3 8.74c.73 2.33 1.28 4.36 1.79 6.58a60.65 60.65 0 0 1 1-6.95l1.58-8.37h4.92zm-5-.43h4.66l4.16-22.12h-4l-1.51 8a53.94 53.94 0 0 0 -1 8.07v.2h-.48v-.17c-.58-2.68-1.19-5-2-7.67l-3.09-8.43h-5.32l-4.2 22.12h4l1.44-7.72c.7-3.66 1.22-6.83 1.48-8.92v-.13l.51-.16.05.24a72.06 72.06 0 0 0 2.21 7.84z" fill="#0e0f0d"/><path  class="logo_long_cls-1"  d="m60 24.36h-13.92l4.36-23h5.25l-3.48 18.36h8.67zm-13.41-.43h13l.72-3.79h-8.61l3.48-18.33h-4.39z" fill="#0e0f0d"/><path  class="logo_long_cls-1"  d="m67.53 24.36h-5.26l4.37-23h5.25zm-4.74-.43h4.38l4.2-22.12h-4.37z" fill="#0e0f0d"/><path  class="logo_long_cls-1"  d="m89.85 24.36h-5.32l-3.19-9.14c-.86-2.59-1.46-4.56-2-7-.28 2.06-.75 4.87-1.35 8l-1.51 8.07h-4.94l4.37-23h6l3 8.74c.73 2.33 1.28 4.36 1.79 6.58a60.65 60.65 0 0 1 1-6.95l1.58-8.37h4.92zm-5-.43h4.66l4.15-22.12h-4l-1.51 8a55.28 55.28 0 0 0 -1 8.07v.2h-.48v-.17c-.58-2.68-1.19-5-2-7.67l-3.08-8.43h-5.33l-4.2 22.12h4l1.44-7.72c.69-3.66 1.21-6.82 1.47-8.92v-.13l.52-.16.05.24a72.06 72.06 0 0 0 2.2 7.84z" fill="#0e0f0d"/><path  class="logo_long_cls-1"  d="m108.08 24.36h-14.25l4.36-23h13.81l-.89 4.54h-8.5l-.85 4.39h8l-.85 4.48h-8l-1 5h9zm-13.74-.43h13.39l.69-3.69h-9l1.11-5.88h8l.68-3.62h-8l1-5.24h8.5l.72-3.69h-12.88z" fill="#0e0f0d"/><path  class="logo_long_cls-1"  d="m122.44 24.36h-5.26l4.37-23h5.25zm-4.74-.43h4.38l4.21-22.12h-4.39z" fill="#0e0f0d"/><path  class="logo_long_cls-1"  d="m144.76 24.36h-5.32l-3.19-9.14c-.86-2.59-1.45-4.56-2-7-.28 2.06-.75 4.87-1.35 8l-1.51 8.07h-4.92l4.37-23h6l3 8.74c.73 2.33 1.28 4.36 1.79 6.58a58.73 58.73 0 0 1 1-6.95l1.57-8.37h4.92zm-5-.43h4.65l4.17-22.12h-4l-1.5 8a55.44 55.44 0 0 0 -1 8.07v.2h-.47v-.17c-.58-2.68-1.19-5-2-7.67l-3.11-8.43h-5.33l-4.17 22.12h4l1.44-7.72c.69-3.66 1.21-6.82 1.47-8.92v-.13l.49-.16v.24a72.06 72.06 0 0 0 2.2 7.84z" fill="#0e0f0d"/><path  class="logo_long_cls-1"  d="m158.11 24.36h-5.25l3.44-18.36h-6l.92-4.64h17.2l-.84 4.64h-6zm-4.74-.43h4.38l3.45-18.33h6l.8-3.79h-16.38l-.76 3.79h6z" fill="#0e0f0d"/><path  class="logo_long_cls-1"  d="m180.63 24.36h-14.26l4.37-23h13.79l-.89 4.54h-8.5l-.85 4.39h8l-.85 4.48h-8l-1 5h9zm-13.74-.43h13.38l.69-3.69h-9l1.12-5.88h8l.69-3.62h-8l1-5.24h8.5l.73-3.69h-12.91z" fill="#0e0f0d"/><path  class="logo_long_cls-1"  d="m200.85 24.36h-5.43v-.15a39.61 39.61 0 0 1 -.67-5.37c-.21-2.83-1.2-3.38-2.84-3.38h-1.29l-1.68 8.9h-5.22l.05-.25 4.23-22.26h.13a28.45 28.45 0 0 1 6.08-.61 12 12 0 0 1 6 1.34 5.09 5.09 0 0 1 2.61 4.6c0 3-1.79 5.31-4.94 6.45 1.09.62 1.71 2 2 4.13.06.55.11 1.11.17 1.67a23.65 23.65 0 0 0 .69 4.66zm-5.11-.43h4.49a30.77 30.77 0 0 1 -.62-4.49c-.05-.56-.11-1.12-.16-1.66-.26-2.21-.9-3.47-2-3.94l-.13-.06v-.43h.15c4.33-1.41 5-4.46 5-6.15a4.66 4.66 0 0 0 -2.47-4.28 11.6 11.6 0 0 0 -5.81-1.28 28.77 28.77 0 0 0 -5.84.56l-4.18 21.73h4.35l1.67-8.9h1.65c2.15 0 3.06 1.06 3.26 3.78a42.25 42.25 0 0 0 .64 5.12zm-2.64-12.08h-2.27l1.28-6.62h.14a8 8 0 0 1 1.92-.23c2.26 0 3.66 1.08 3.66 2.82 0 2.35-1.99 4.03-4.73 4.03zm-1.75-.43h1.75c2.49 0 4.3-1.5 4.3-3.57 0-1.5-1.2-2.4-3.23-2.4a8.33 8.33 0 0 0 -1.69.14z" fill="#0e0f0d"/><path  class="logo_long_cls-1"  d="m221.49 24.36h-5.32l-3.17-9.14c-.86-2.59-1.45-4.55-2-7-.28 2.06-.75 4.87-1.35 8l-1.51 8.07h-4.92l4.37-23h6l3 8.74c.73 2.33 1.28 4.36 1.79 6.58a58.73 58.73 0 0 1 1-6.95l1.57-8.37h4.92zm-5-.43h4.65l4.16-22.12h-4.05l-1.5 8a55.44 55.44 0 0 0 -1 8.07v.2h-.47v-.17c-.58-2.68-1.19-5-2-7.67l-2.92-8.45h-5.46l-4.2 22.12h4.05l1.44-7.72c.69-3.66 1.21-6.83 1.47-8.92v-.11l.46-.16.05.24a72.06 72.06 0 0 0 2.2 7.84z" fill="#0e0f0d"/><path  class="logo_long_cls-1"  d="m242.86 24.7c-6.19 0-10.19-3.85-10.19-9.79a13.4 13.4 0 0 1 5.79-11.45 14.37 14.37 0 0 1 8.41-2.46 10.79 10.79 0 0 1 5 1l.14.08-1.44 4.31-.22-.11a9.72 9.72 0 0 0 -4-.71 7.84 7.84 0 0 0 -5 1.69 9 9 0 0 0 -3 7.1c0 3.67 2.1 5.77 5.77 5.77a11.49 11.49 0 0 0 4.2-.72l.27-.11.44 4.32-.14.07a16 16 0 0 1 -6.03 1.01zm4-23.26a14 14 0 0 0 -8.17 2.37 13 13 0 0 0 -5.6 11.1c0 5.69 3.83 9.36 9.76 9.36a16.09 16.09 0 0 0 5.73-.89l-.36-3.45a12.5 12.5 0 0 1 -4.1.65c-3.88 0-6.2-2.32-6.2-6.2a9.38 9.38 0 0 1 3.2-7.38 8.29 8.29 0 0 1 5.29-1.79 10.88 10.88 0 0 1 4 .66l1.18-3.53a11.39 11.39 0 0 0 -4.72-.9z" fill="#0e0f0d"/><path  class="logo_long_cls-1"  d="m260.7 24.73c-5.6 0-9.35-3.87-9.35-9.62a15.18 15.18 0 0 1 4.21-10.83 12.07 12.07 0 0 1 8.38-3.28c5.75 0 9.32 3.69 9.32 9.62a15.35 15.35 0 0 1 -4.08 10.79 11.91 11.91 0 0 1 -8.48 3.32zm3.24-23.29a11.63 11.63 0 0 0 -8.08 3.15 14.74 14.74 0 0 0 -4.09 10.52c0 5.5 3.59 9.19 8.93 9.19a11.5 11.5 0 0 0 8.18-3.18 15 15 0 0 0 3.95-10.49c0-5.63-3.41-9.19-8.89-9.19zm-2.54 19.27c-3.14 0-4.93-2.1-4.93-5.77 0-2.64 1-6.29 2.87-8.14a5.52 5.52 0 0 1 4-1.77c3.08 0 4.77 2 4.77 5.73 0 2.64-1 6.43-2.81 8.25a5.68 5.68 0 0 1 -3.9 1.7zm2-15.26a5.1 5.1 0 0 0 -3.73 1.65c-1.8 1.77-2.75 5.29-2.75 7.84 0 3.4 1.65 5.35 4.51 5.35a5.3 5.3 0 0 0 3.57-1.58c1.74-1.74 2.68-5.4 2.68-8s-.68-5.26-4.31-5.26z" fill="#0e0f0d"/><path  class="logo_long_cls-1"  d="m292.23 24.36h-5.32l-3.19-9.14c-.86-2.59-1.45-4.55-2-7-.28 2.06-.75 4.87-1.35 8l-1.51 8.07h-4.92l4.37-23h6l3 8.74c.73 2.33 1.28 4.36 1.79 6.58a58.73 58.73 0 0 1 1-6.95l1.57-8.37h4.92zm-5-.43h4.65l4.12-22.12h-4l-1.5 8a55.44 55.44 0 0 0 -1 8.07v.2h-.5v-.17c-.58-2.68-1.19-5-2-7.67l-3-8.43h-5.33l-4.2 22.12h4.05l1.44-7.72c.69-3.66 1.21-6.83 1.47-8.92v-.13l.46-.16.05.24a72.06 72.06 0 0 0 2.2 7.84z" fill="#0e0f0d"/><path  class="logo_long_cls-1"  d="m305.58 24.36h-5.25l3.44-18.36h-6l.92-4.64h17.2l-.84 4.64h-6zm-4.74-.43h4.38l3.45-18.33h6l.73-3.79h-16.31l-.76 3.79h6z" fill="#0e0f0d"/><path  class="logo_long_cls-1"  d="m328.1 24.36h-14.26l4.37-23h13.79l-.89 4.54h-8.5l-.85 4.39h8l-.85 4.48h-8l-.95 5h9zm-13.74-.43h13.38l.69-3.69h-9l1.12-5.88h8l.69-3.62h-8l1-5.24h8.5l.72-3.69h-12.9z" fill="#0e0f0d"/><path  class="logo_long_cls-1"  d="m337.22 24.7a11.59 11.59 0 0 1 -6.58-1.65l-.13-.1 1.76-4.33.21.12a10.35 10.35 0 0 0 5.21 1.41c1.68 0 3.37-.75 3.37-2.43 0-1.09-.77-1.87-2.93-3s-4.8-3-4.8-6.18c0-4.44 3.75-7.54 9.11-7.54a11 11 0 0 1 5.43 1.17l.16.09-1.66 4.41-.21-.11a8.75 8.75 0 0 0 -4.11-1c-1.55 0-3.21.68-3.21 2.16 0 1.15 1.21 1.89 3.17 3 3.09 1.62 4.6 3.63 4.6 6.15 0 4.76-3.69 7.83-9.39 7.83zm-6.22-1.9a11.43 11.43 0 0 0 6.19 1.47c5.44 0 9-2.9 9-7.38 0-2.38-1.39-4.21-4.37-5.77-1.82-1-3.39-1.91-3.39-3.37 0-1.25 1.13-2.59 3.62-2.59a9.27 9.27 0 0 1 4.1.92l1.36-3.62a10.85 10.85 0 0 0 -5.06-1c-5.11 0-8.68 2.92-8.68 7.11 0 2.95 2.44 4.65 4.57 5.81s3.16 1.91 3.16 3.36c0 2-1.91 2.86-3.8 2.86a10.94 10.94 0 0 1 -5.21-1.34z" fill="#0e0f0d"/><path  class="logo_long_cls-1"  d="m357.58 24.36h-5.25l3.44-18.36h-6l.93-4.64h17.19l-.84 4.64h-6zm-4.74-.43h4.39l3.44-18.33h6l.72-3.79h-16.3l-.76 3.79h6z" fill="#0e0f0d"/><path  class="logo_long_cls-1"  d="m386.56 24.36h-15.29l.63-3.44 4.75-3.67c4.14-3.38 7.07-6 7.07-8.53 0-1.5-1.07-2.43-2.79-2.43a8.44 8.44 0 0 0 -4.48 1.24l-.24.15-1.09-3.87.14-.09a13.64 13.64 0 0 1 6.84-1.91c4.25 0 7 2.41 7 6.14 0 4.55-3.53 7.63-7.47 10.64l-1.71 1.23h7.49zm-14.78-.43h14.42l.69-3.69h-7.75v-.39l2.23-1.6c3.85-2.94 7.31-5.95 7.31-10.3 0-3.47-2.59-5.71-6.58-5.71a13.25 13.25 0 0 0 -6.48 1.76l.85 3a8.83 8.83 0 0 1 4.46-1.16c2 0 3.22 1.13 3.22 2.86 0 2.75-3 5.41-7.24 8.87l-4.62 3.56z" fill="#0e0f0d"/><path  class="logo_long_cls-1"  d="m397.36 24.73c-4.14 0-6.51-2.93-6.51-8a19.78 19.78 0 0 1 2.61-10c1.93-3.18 4.62-4.86 7.78-4.86 4.11 0 6.47 2.8 6.47 7.68 0 7.33-3.63 15.18-10.35 15.18zm3.88-22.49c-3.79 0-6.12 2.53-7.41 4.66a19.29 19.29 0 0 0 -2.55 9.78c0 6.63 3.81 7.62 6.08 7.62 6.44 0 9.92-7.63 9.92-14.81 0-6.31-3.78-7.25-6.04-7.25zm-3.24 18.67c-1.59 0-2.39-1.36-2.39-4.06 0-3.35 1.75-11.22 5.13-11.22 1.5 0 2.26 1.31 2.26 3.89 0 3.14-1.58 11.39-5 11.39zm2.7-14.85c-1.75 0-2.93 2.61-3.47 4.17a22.39 22.39 0 0 0 -1.23 6.62c0 2.45.64 3.64 2 3.64 3 0 4.57-7.78 4.57-11-.04-2.3-.64-3.43-1.87-3.43z" fill="#0e0f0d"/><path  class="logo_long_cls-1"  d="m422.76 24.36h-15.29l.63-3.44 4.75-3.67c4.15-3.38 7.08-6 7.08-8.53 0-1.5-1.07-2.43-2.8-2.43a8.4 8.4 0 0 0 -4.47 1.24l-.24.15-1.09-3.87.14-.09a13.61 13.61 0 0 1 6.83-1.91c4.26 0 7 2.41 7 6.14 0 4.55-3.54 7.63-7.48 10.64l-1.7 1.23h7.48zm-14.76-.43h14.42l.69-3.69h-7.75v-.39l2.23-1.6c3.84-2.94 7.3-5.95 7.3-10.3 0-3.47-2.58-5.71-6.58-5.71a13.18 13.18 0 0 0 -6.48 1.76l.85 3a8.82 8.82 0 0 1 4.45-1.16c2 0 3.23 1.13 3.23 2.86 0 2.75-3 5.41-7.24 8.87l-4.63 3.56z" fill="#0e0f0d"/><path  class="logo_long_cls-1"  d="m433.56 24.73c-4.13 0-6.5-2.93-6.5-8a19.78 19.78 0 0 1 2.61-10c1.93-3.18 4.62-4.86 7.77-4.86 4.12 0 6.48 2.8 6.48 7.68 0 7.33-3.63 15.18-10.36 15.18zm3.88-22.49c-3.78 0-6.12 2.53-7.41 4.66a19.28 19.28 0 0 0 -2.54 9.78c0 6.63 3.8 7.62 6.07 7.62 6.45 0 9.93-7.63 9.93-14.81 0-6.31-3.79-7.25-6.05-7.25zm-3.27 18.67c-1.59 0-2.39-1.36-2.39-4.06 0-3.35 1.74-11.22 5.13-11.22 1.5 0 2.25 1.31 2.25 3.89 0 3.14-1.53 11.39-4.99 11.39zm2.74-14.85c-1.75 0-2.93 2.61-3.48 4.17a22.73 22.73 0 0 0 -1.23 6.62c0 2.45.65 3.64 2 3.64 3 0 4.57-7.78 4.57-11-.03-2.3-.63-3.43-1.86-3.43z" fill="#0e0f0d"/><path  class="logo_long_cls-1"  d="m453.72 17.27h-9.1l.71-3.81h9.1zm-8.59-.43h8.23l.56-2.95h-8.23z" fill="#0e0f0d"/><path  class="logo_long_cls-1"  d="m469.75 24.36h-15.3l.63-3.44 4.75-3.67c4.15-3.38 7.08-6 7.08-8.53 0-1.5-1.07-2.43-2.8-2.43a8.4 8.4 0 0 0 -4.47 1.24l-.24.15-1.09-3.88.14-.08a13.62 13.62 0 0 1 6.84-1.91c4.25 0 7 2.41 7 6.14 0 4.55-3.54 7.63-7.48 10.64l-1.7 1.23h7.49zm-14.75-.43h14.42l.69-3.69h-7.75v-.39l2.23-1.6c3.85-2.94 7.3-5.95 7.3-10.3 0-3.47-2.58-5.71-6.57-5.71a13.22 13.22 0 0 0 -6.51 1.76l.85 3a8.82 8.82 0 0 1 4.45-1.16c2 0 3.23 1.13 3.23 2.86 0 2.75-3 5.41-7.24 8.87l-4.62 3.56z" fill="#0e0f0d"/></svg>